<svg width="130" height="147" viewBox="0 0 130 147" fill="none" xmlns="http://www.w3.org/2000/svg">
<rect width="130" height="147" fill="#B58240"/>
<path d="M111.114 20H18V99.8927L64.5572 133L111.114 99.8927V20Z" stroke="black" stroke-width="4"/>
<path d="M53.4254 80.2077C53.4254 84.6772 52.4528 88.05 50.5078 90.3261C48.5627 92.6436 45.8314 94.4852 42.3137 95.8509L40.2031 90.264C41.7343 89.5191 42.8724 88.7121 43.6173 87.843C44.3622 87.0154 44.8588 86.0014 45.1071 84.8013C45.3554 83.6012 45.4796 81.9665 45.4796 79.8973V43.5206H53.4254V80.2077Z" fill="white"/>
<path d="M76.2489 42.6515C78.6078 42.6515 80.7183 43.086 82.5806 43.9551C84.4429 44.7828 86.2017 46.0036 87.8571 47.6176L83.8842 51.7146C82.6013 50.5972 81.4012 49.8109 80.2838 49.3557C79.1664 48.8591 77.9042 48.6108 76.4972 48.6108C73.7658 48.6108 71.6138 49.8316 70.0412 52.2733C68.51 54.715 67.7444 58.9361 67.7444 64.9368C67.7444 69.158 68.0134 72.4688 68.5514 74.869C69.1308 77.2279 69.9585 78.8833 71.0345 79.8351C72.1518 80.787 73.6003 81.2629 75.3798 81.2629C77.2421 81.2629 78.9388 80.7456 80.47 79.711V68.1027H75.6281L74.8211 62.2055H87.9813V83.1873C86.2017 84.4702 84.2153 85.4841 82.0219 86.229C79.87 86.9325 77.6766 87.2843 75.4419 87.2843C70.1033 87.2843 66.1097 85.4841 63.4612 81.8837C60.8126 78.2418 59.4883 72.5929 59.4883 64.9368C59.4883 59.9708 60.2125 55.8323 61.6609 52.5216C63.1508 49.1695 65.1579 46.6864 67.6823 45.0725C70.2068 43.4585 73.0623 42.6515 76.2489 42.6515Z" fill="white"/>
</svg>
